<svg xmlns="http://www.w3.org/2000/svg" viewBox="0 0 24 24" fill="#FFA500">
  <path d="M17.22 8.52c-2.48.02-4.9.46-7.23 1.3-1.63.58-3.08 1.48-4.32 2.65-.63.59-1.25 1.25-1.78 2.01-.22.31-.4.65-.54 1.01-.16.42-.25.86-.25 1.33 0 1.54 1.15 2.79 2.58 2.79.82 0 1.56-.39 2.08-1.01.55-.65.86-1.54.86-2.58 0-.9-.23-1.75-.68-2.52.28-.15.54-.3.8-.45.96-.54 1.94-1.04 2.94-1.51 1.03-.47 2.08-.88 3.16-1.23 2.15-.7 4.3-.95 6.45-.75 2.5.24 4.8 1.45 6.6 3.45.12.13.25.26.37.4l-1.35 1.42c-.52-.5-1.1-1.01-1.69-1.5-.96-.82-2.12-1.36-3.37-1.54-1.3-.18-2.6.01-3.8.52-1.2.52-2.3 1.25-3.2 2.15-1.1.92-1.9 2.06-2.5 3.32-.4.85-.7 1.77-.9 2.73-.2 1.05-.2 2.12-.01 3.2.04.2.08.4.12.6l1.23-1.3c.09.28.19.56.29.84.28.7.6 1.38.99 2.02.43.72.93 1.38 1.51 1.96.6.6 1.26 1.08 1.96 1.43 1.2.6 2.5.9 3.8.9.72 0 1.4-.11 2.05-.35.9-.32 1.7-.82 2.4-1.5.5-.5.9-1.1 1.2-1.7.3-.6.5-1.2.5-1.9 0-.9-.3-1.7-.8-2.5-1.02-1.64-2.58-2.8-4.4-3.5-1.6-.6-3.2-1.02-4.9-1.2l-1.42.02c-.02-.2-.04-.4-.06-.6-.05-.4-.08-.8-.08-1.2 0-.2.01-.4.02-.6.1-.8.3-1.6.6-2.4l1.32-1.39c.07-.07.15-.14.22-.21 1.74-1.62 3.65-3.03 5.68-4.22 1.07-.63 2.18-1.18 3.3-1.63.1-.04.2-.08.3-.13.3-.1.6-.2.9-.3.1-.03.2-.06.3-.08.3-.07.6-.13.9-.17.1-.02.2-.04.3-.06.3-.05.6-.08.9-.1-.01.2-.02.4-.04.6-.2.8-.5 1.5-.9 2.2-1.2 2.1-3.1 3.7-5.3 4.8-.8.4-1.7.7-2.6.9-.2.06-.4.1-.6.17-.07.03-.13.06-.2.1v.01l.01-.01z"/>
</svg>